<svg width="530" height="530" viewBox="0 0 530 530" fill="none" xmlns="http://www.w3.org/2000/svg">
<rect x="5" y="5" width="520" height="520" rx="50" fill="#2296ED"/>
<g clip-path="url(#clip0_48_121)">
<path d="M192.74 66.9001C193.647 86.3419 194.101 104.33 194.101 120.865C194.101 152.299 192.559 181.916 189.474 209.715C188.023 222.252 182.942 232.792 174.233 241.331C165.705 249.69 154.637 254.505 141.029 255.776H141.301C138.035 256.14 135.041 256.321 132.32 256.321C121.614 256.321 111.363 254.596 101.565 251.143C91.767 247.872 83.6021 242.785 77.0701 235.88C70.7196 228.976 67.3629 220.527 67 210.533C67 197.269 67.1814 177.373 67.5443 150.845L67.8165 133.129C68.1794 113.869 68.3608 99.6059 68.3608 90.3392C68.3608 78.3471 68.2701 69.5347 68.0887 63.902H74.8928L91.2227 63.3569C100.113 63.3569 107.916 64.3563 114.629 66.355C113.903 86.7053 113.54 102.331 113.54 113.233C113.54 139.58 114.72 168.743 117.078 200.721V200.448C118.167 204.083 119.8 206.9 121.977 208.898C124.155 210.715 126.513 211.623 129.054 211.623C131.957 211.623 134.678 210.443 137.219 208.08C139.759 205.718 141.482 202.72 142.39 199.086V199.358C143.115 182.643 143.66 156.205 144.023 120.047L144.295 102.604C144.295 93.8824 144.476 81.8902 144.839 66.6275L150.555 65.8099C153.095 65.8099 156.542 65.5373 160.897 64.9922C168.336 64.2654 172.781 63.9929 174.233 64.1746C182.035 64.1746 187.478 65.0831 190.563 66.9001H192.74Z" fill="white"/>
<path d="M325.555 252.784C319.75 251.877 313.49 251.422 306.775 251.422C306.05 251.422 304.326 251.422 301.604 251.422C298.883 251.604 292.17 251.785 281.464 251.967C281.101 242.155 280.92 233.525 280.92 226.074L279.015 166.114L275.749 172.383C273.027 177.289 270.85 180.741 269.217 182.74C267.765 184.738 266.132 185.738 264.318 185.738C260.326 185.556 255.608 179.015 250.165 166.114C249.984 167.931 249.893 170.293 249.893 173.2C250.074 176.108 250.165 178.379 250.165 180.014V186.828C250.165 204.453 250.982 225.712 252.615 250.604C244.813 251.877 236.92 252.512 228.936 252.512L210.429 251.967H206.619C206.074 251.967 205.711 251.877 205.53 251.694C205.349 251.694 205.258 251.513 205.258 251.149L204.986 248.151C204.622 241.247 204.441 227.075 204.441 205.633C204.441 180.559 204.714 133.136 205.258 63.3631C207.98 62.4546 210.792 61.8187 213.695 61.4553C216.78 61.0919 221.135 60.9102 226.759 60.9102L240.095 61.1827C244.086 61.1827 247.08 61.0919 249.076 60.9102C251.435 63.6357 253.522 67.088 255.336 71.267C257.15 75.4462 260.507 83.9861 265.406 96.8866C265.587 96.5233 266.132 94.7062 267.039 91.4357C268.128 88.1651 272.391 77.5357 279.831 59.5475C282.189 60.0925 285.274 60.3651 289.085 60.3651C291.987 60.3651 296.888 60.1834 303.782 59.82L326.643 59.2749L325.555 252.784Z" fill="white"/>
<path d="M461.909 251.413C456.103 252.685 449.843 253.321 443.13 253.321C435.146 253.321 426.437 252.321 417.002 250.323C415.733 246.87 413.736 239.603 411.015 228.519C408.293 217.253 406.116 209.803 404.483 206.17L399.039 205.898L394.413 206.17C393.687 208.351 392.507 213.71 390.874 222.251C389.605 229.337 388.334 235.15 387.064 239.694C385.794 244.055 383.979 248.052 381.621 251.686C379.807 252.048 377.085 252.231 373.456 252.231C371.823 252.231 368.285 252.048 362.841 251.686C347.056 250.958 338.255 250.596 336.441 250.596C336.441 249.687 336.622 247.598 336.986 244.327C337.349 240.874 337.893 237.058 338.619 232.88L344.606 198.539C349.324 170.375 353.769 145.846 357.942 124.95C362.297 104.055 367.921 81.9783 374.817 58.7208C377.357 58.3574 380.804 58.1757 385.159 58.1757H386.792C398.586 58.1757 410.107 57.7215 421.357 56.813C423.534 65.3529 425.531 73.8018 427.344 82.1601C429.158 90.3365 430.791 97.6954 432.243 104.237C438.05 129.493 441.95 146.3 443.947 154.658L461.909 251.413ZM405.027 171.284C401.036 134.944 399.131 116.774 399.312 116.774L399.039 114.048C399.039 114.048 398.858 116.229 398.495 120.589C397.951 134.217 397.134 145.028 396.046 153.023L393.596 171.284H405.027Z" fill="white"/>
<path d="M176.408 298.383C184.936 311.829 190.561 325.365 193.283 338.993V338.72C194.734 343.262 195.641 349.169 196.004 356.436C195.641 361.887 195.46 365.975 195.46 368.701L195.188 373.062C195.188 374.333 195.006 378.604 194.643 385.871C194.281 393.139 193.373 400.316 191.922 407.403C188.474 417.578 183.666 427.571 177.497 437.383C171.509 447.014 164.342 457.007 155.996 467.364C140.755 467.727 128.235 467.909 118.437 467.909L98.8414 468.181L77.6125 468.454C74.3466 444.651 72.7136 414.67 72.7136 378.513C72.7136 362.705 72.8043 350.894 72.9857 343.081C73.1672 335.995 73.2579 323.822 73.2579 306.56C73.2579 302.199 73.0765 295.658 72.7136 286.936L72.4414 278.76L74.3466 278.487C83.9631 275.943 95.1219 274.671 107.823 274.671L114.899 274.944H122.248C124.606 275.125 128.235 275.216 133.134 275.216C138.033 275.216 141.662 275.125 144.021 274.944C150.734 276.76 157.175 280.031 163.345 284.756C169.514 289.298 174.412 294.567 178.041 300.564L176.408 298.383ZM151.641 373.879C151.641 370.609 151.278 367.429 150.553 364.34C149.101 356.709 147.378 350.531 145.382 345.807C143.386 340.901 140.301 337.722 136.128 336.267H136.672C132.318 335.904 129.052 335.722 126.874 335.722C123.245 335.722 120.887 335.904 119.798 336.267C120.161 342.809 120.342 348.986 120.342 354.801V361.887L120.07 369.246C119.889 373.425 119.798 379.694 119.798 388.052C119.798 396.047 119.707 402.133 119.526 406.313C122.248 407.403 124.153 407.948 125.241 407.948H128.78C131.683 407.948 133.769 407.675 135.039 407.13C137.942 406.404 141.208 403.133 144.837 397.318C149.373 390.413 151.641 382.601 151.641 373.879Z" fill="white"/>
<path d="M328.55 468.185C322.745 469.457 316.485 470.093 309.771 470.093C301.787 470.093 293.077 469.094 283.643 467.095C282.373 463.643 280.377 456.375 277.655 445.291C274.934 434.026 272.756 426.577 271.123 422.942L265.68 422.67L261.053 422.942C260.328 425.123 259.148 430.482 257.515 439.023C256.245 446.109 254.974 451.924 253.705 456.466C252.435 460.827 250.62 464.824 248.261 468.458C246.447 468.822 243.726 469.003 240.096 469.003C238.463 469.003 234.925 468.822 229.482 468.458C213.696 467.732 204.896 467.368 203.082 467.368C203.082 466.459 203.263 464.37 203.626 461.099C203.99 457.647 204.534 453.832 205.259 449.652L211.247 415.311C215.965 387.147 220.409 362.618 224.583 341.723C228.938 320.828 234.562 298.751 241.457 275.493C243.998 275.129 247.445 274.948 251.8 274.948H253.433C265.227 274.948 276.748 274.494 287.997 273.585C290.175 282.126 292.171 290.575 293.985 298.932C295.799 307.109 297.432 314.468 298.884 321.009C304.691 346.265 308.591 363.073 310.587 371.431L328.55 468.185ZM271.668 388.056C267.676 351.716 265.771 333.546 265.952 333.546L265.68 330.821C265.68 330.821 265.499 333.001 265.136 337.362C264.591 350.989 263.775 361.8 262.686 369.795L260.237 388.056H271.668Z" fill="white"/>
<path d="M461.64 322.906C462.184 328.539 462.456 334.263 462.456 340.076L462.184 344.982V349.888C461.821 355.884 461.64 364.697 461.64 376.325C461.64 389.226 461.368 399.038 460.823 405.761L460.007 414.755C459.099 429.472 455.38 442.01 448.848 452.366C446.126 456.182 442.044 459.544 436.601 462.451C431.157 465.359 425.17 467.72 418.638 469.537C411.925 471.536 404.032 472.535 394.959 472.535C390.786 472.535 387.883 472.445 386.25 472.263C377.36 471.536 369.376 469.628 362.3 466.539C355.404 463.268 350.324 458.545 347.058 452.366C342.704 444.19 340.345 433.924 339.982 421.568L339.438 412.847C339.257 411.394 339.166 408.396 339.166 403.853C338.258 388.954 337.805 374.69 337.805 361.062C337.805 352.705 338.077 344.347 338.621 335.988C339.166 326.904 340.707 318.091 343.248 309.551C345.97 300.829 350.052 293.198 355.495 286.657L361.483 283.386C373.095 277.754 385.797 274.937 399.586 274.937C408.295 274.937 416.46 276.119 424.081 278.48C431.883 280.661 438.687 283.931 444.493 288.292C450.844 294.107 455.017 299.83 457.013 305.463C459.19 311.277 460.732 317.092 461.64 322.906ZM419.454 352.613L418.366 338.441C418.002 333.354 416.733 328.902 414.555 325.086C412.559 321.089 409.928 318.272 406.662 316.637C405.21 316.092 403.76 315.819 402.308 315.819C397.953 315.819 393.69 317.273 389.516 320.18C387.339 321.998 385.161 324.632 382.984 328.084C380.988 331.355 379.446 334.717 378.357 338.168C376.543 346.164 375.636 356.339 375.636 368.694C375.636 374.873 375.727 379.506 375.908 382.594V382.321C376.633 385.956 377.177 390.77 377.541 396.766L377.813 400.582C378.538 409.668 379.537 416.39 380.807 420.751V420.478C382.44 424.113 384.798 426.929 387.883 428.927C391.149 430.745 394.596 431.653 398.225 431.653C401.128 431.653 404.032 431.018 406.935 429.745C410.02 428.292 412.65 426.293 414.827 423.749C416.641 421.387 417.73 419.388 418.093 417.753C418.638 416.117 418.91 413.575 418.91 410.121C418.91 407.033 419.001 404.762 419.182 403.308L419.454 399.764L419.726 394.586V390.77L419.998 385.592V372.51L419.454 353.976V352.613Z" fill="white"/>
</g>
<defs>
<clipPath id="clip0_48_121">
<rect width="396" height="417" fill="white" transform="translate(67 56)"/>
</clipPath>
</defs>
</svg>
