<?xml version="1.0" standalone="no"?>
<!DOCTYPE svg PUBLIC "-//W3C//DTD SVG 20010904//EN"
 "http://www.w3.org/TR/2001/REC-SVG-20010904/DTD/svg10.dtd">
<svg version="1.0" xmlns="http://www.w3.org/2000/svg"
 width="700.000000pt" height="700.000000pt" viewBox="0 0 700.000000 700.000000"
 preserveAspectRatio="xMidYMid meet">
<metadata>
Created by potrace 1.14, written by Peter Selinger 2001-2017
</metadata>
<g transform="translate(0.000000,700.000000) scale(0.100000,-0.100000)"
fill="#000000" stroke="none">
<path d="M5776 6642 c-2 -1 -111 -5 -242 -7 -235 -5 -354 -11 -360 -18 -5 -5
-58 -184 -88 -298 -14 -52 -33 -121 -42 -154 -17 -63 -22 -84 -30 -125 -3 -14
-9 -39 -15 -57 -5 -17 -12 -44 -15 -60 -3 -15 -10 -46 -16 -68 -5 -22 -12 -49
-14 -60 -2 -11 -15 -71 -29 -135 -20 -94 -64 -322 -90 -465 -25 -140 -88 -496
-92 -520 -6 -37 -51 -293 -56 -320 -3 -11 -8 -42 -11 -68 -4 -27 -9 -59 -12
-70 -42 -211 -78 -483 -65 -491 10 -7 365 -20 531 -21 l145 0 27 50 c28 50 64
151 74 208 2 17 6 33 8 36 2 3 7 22 10 41 3 19 17 91 31 160 14 69 27 136 30
149 7 39 22 46 95 46 l70 0 25 -70 c21 -59 48 -157 60 -215 2 -8 13 -51 25
-95 12 -44 23 -87 25 -96 17 -77 49 -180 59 -188 44 -37 491 -60 619 -32 51
11 56 15 52 34 -4 18 -55 292 -96 517 -6 30 -23 125 -39 210 -16 85 -32 169
-35 185 -5 30 -11 60 -20 105 -3 14 -8 43 -11 65 -3 22 -7 42 -9 45 -2 3 -6
26 -10 50 -3 25 -13 77 -20 115 -8 39 -17 88 -20 110 -4 22 -15 74 -25 115
-24 94 -156 665 -182 785 -10 50 -21 97 -23 105 -2 8 -18 78 -35 155 -17 77
-40 176 -52 220 -23 92 -26 105 -27 123 -1 9 -16 12 -52 10 -28 -2 -52 -4 -53
-6z m-230 -944 c3 -43 12 -125 19 -183 4 -32 11 -103 20 -200 3 -33 8 -71 10
-85 2 -14 7 -54 10 -90 7 -72 11 -114 20 -177 l6 -43 -86 0 -87 0 7 63 c3 34
10 89 15 122 5 33 12 85 15 115 3 30 8 66 10 80 8 55 22 286 24 389 1 71 12
76 17 9z"/>
<path d="M3732 6598 c-7 -7 -12 -15 -12 -20 0 -4 -34 -90 -76 -190 -42 -101
-87 -218 -101 -261 -14 -43 -26 -77 -28 -75 -1 2 -31 75 -65 163 -77 198 -121
294 -154 338 l-26 34 -272 -2 c-261 -2 -354 -10 -382 -36 -24 -21 -27 -2822
-3 -2845 10 -10 489 -9 567 1 50 6 93 12 95 13 3 1 14 2 26 2 20 0 20 3 14
133 -3 72 -8 150 -10 173 -12 137 -27 954 -16 953 3 0 25 -40 49 -88 70 -143
139 -205 198 -179 23 11 107 132 149 215 14 29 29 54 33 57 4 2 9 -64 10 -147
2 -84 5 -186 7 -227 1 -41 6 -196 10 -345 6 -229 9 -358 14 -531 l1 -31 268 1
c147 1 297 -2 333 -6 l67 -7 1 427 c2 519 12 2151 14 2351 l2 143 -240 -6
c-315 -9 -409 -10 -438 -2 -13 3 -29 0 -35 -6z"/>
<path d="M533 6205 c0 -187 -3 -567 -7 -845 -14 -874 -12 -1095 9 -1170 73
-261 318 -450 680 -525 158 -32 381 -37 498 -10 12 3 33 7 47 9 14 2 54 14 90
26 281 94 481 344 515 640 4 36 9 73 11 84 2 10 6 51 9 90 3 39 8 91 10 116 2
25 7 90 10 145 4 55 8 118 10 140 26 310 23 1563 -3 1586 -4 3 -36 14 -72 25
-72 21 -245 25 -405 11 -49 -5 -112 -10 -140 -13 -27 -2 -62 -6 -77 -10 l-28
-6 -1 -121 c-4 -633 -24 -1724 -34 -1847 -5 -76 -43 -142 -103 -183 -99 -67
-209 -30 -261 87 -20 45 -22 65 -46 461 -19 319 -27 1086 -15 1469 5 162 17
147 -129 171 -61 10 -155 14 -327 12 l-241 -2 0 -340z"/>
<path d="M3807 3374 c-5 -6 -224 -16 -402 -19 -233 -4 -228 -4 -243 -14 -29
-18 -212 -739 -291 -1141 -43 -222 -98 -520 -116 -630 -3 -19 -11 -62 -17 -95
-6 -33 -12 -69 -13 -80 -2 -11 -6 -36 -9 -55 -4 -19 -15 -84 -26 -145 -11 -60
-22 -126 -25 -145 -3 -19 -7 -46 -10 -60 -3 -14 -7 -41 -10 -60 -3 -19 -12
-69 -20 -110 -17 -86 -33 -190 -41 -258 -3 -26 -7 -62 -9 -80 -3 -20 0 -32 8
-33 173 -14 618 -28 656 -21 39 8 107 174 134 328 12 66 59 292 68 327 l10 38
77 -3 77 -3 33 -99 c17 -54 34 -108 36 -120 6 -33 76 -304 97 -377 l19 -66 52
-11 c29 -6 76 -14 103 -17 28 -4 61 -9 75 -11 33 -6 290 -6 315 0 12 2 46 7
78 11 31 4 57 10 57 14 0 4 -16 92 -36 196 -50 268 -109 588 -150 810 -19 105
-39 213 -44 240 -23 116 -40 206 -46 242 -3 21 -8 41 -11 46 -2 4 -7 20 -9 35
-3 15 -18 83 -35 151 -16 68 -31 133 -33 145 -3 11 -23 100 -46 196 -22 96
-56 247 -76 335 -19 88 -41 185 -49 215 -13 52 -17 69 -30 138 -3 15 -8 35
-11 44 -3 9 -7 25 -9 35 -16 69 -24 95 -29 101 -7 6 -44 11 -49 6z m-280 -899
c0 -8 -4 -12 -9 -9 -5 3 -6 10 -3 15 9 13 12 11 12 -6z m4 -57 c0 -18 2 -44 4
-58 3 -30 16 -153 20 -195 1 -16 5 -52 8 -80 3 -27 9 -79 12 -115 4 -36 8 -76
10 -90 2 -14 6 -52 10 -85 3 -33 8 -79 11 -102 3 -26 1 -43 -6 -44 -59 -6
-160 -2 -160 7 0 6 7 60 15 120 29 211 31 223 40 344 7 84 12 161 16 273 2 60
19 80 20 25z"/>
<path d="M900 3348 c-106 -12 -179 -24 -260 -43 -8 -2 -19 -4 -25 -4 -10 -1
-11 -2061 -2 -2161 3 -25 8 -99 11 -165 7 -122 13 -198 21 -270 2 -22 7 -71
11 -108 3 -38 9 -89 13 -115 l6 -47 355 2 c462 3 830 9 834 14 1 2 27 36 58
74 188 237 343 487 432 697 74 176 95 342 110 888 5 148 -65 435 -152 622 -40
87 -97 198 -135 260 -81 135 -289 295 -448 347 -43 14 -725 21 -829 9z m687
-932 c82 -42 129 -136 178 -351 53 -231 29 -400 -78 -567 -48 -75 -98 -123
-143 -138 -47 -16 -168 -17 -207 -1 l-27 11 5 327 c5 352 6 585 1 673 -2 48 0
56 18 61 40 11 224 0 253 -15z"/>
<path d="M5497 3355 c-1 -2 -38 -5 -82 -8 -80 -6 -100 -9 -185 -28 -74 -16
-190 -59 -272 -100 -63 -32 -85 -49 -119 -96 -100 -135 -159 -300 -204 -568
-20 -122 -27 -675 -12 -975 5 -85 10 -200 12 -255 13 -313 24 -402 65 -525 84
-249 228 -358 547 -415 77 -14 374 -15 453 -1 76 12 196 47 282 82 185 74 284
153 350 279 49 94 100 257 114 360 11 89 14 117 19 190 3 44 8 100 11 125 2
25 7 221 11 435 11 724 10 760 -31 910 -44 163 -92 250 -195 352 -131 131
-400 226 -669 236 -50 2 -93 3 -95 2z m185 -650 c38 -26 94 -102 116 -160 21
-55 31 -109 37 -201 3 -49 8 -112 11 -140 8 -73 8 -656 0 -754 -4 -47 -8 -119
-10 -160 -2 -41 -7 -86 -11 -100 -23 -74 -125 -165 -210 -189 -167 -46 -333
46 -364 202 -10 48 -14 72 -26 167 -3 19 -7 73 -10 120 -6 87 -10 135 -23 230
-9 67 -8 343 2 465 18 220 66 345 171 452 51 51 72 65 126 81 79 25 139 21
191 -13z"/>
</g>
</svg>
