<svg width="120" height="120" viewBox="0 0 120 120" fill="none" xmlns="http://www.w3.org/2000/svg">
<rect width="120" height="120" fill="white"/>
<path d="M98.1805 24.9821C90.9534 21.6733 83.3238 19.326 75.4866 18C74.4142 19.9172 73.4438 21.8896 72.5796 23.9092C64.2315 22.6513 55.7421 22.6513 47.394 23.9092C46.5294 21.8899 45.559 19.9174 44.487 18C36.6449 19.3372 29.0103 21.6901 21.7759 24.9994C7.41379 46.2483 3.52045 66.9695 5.46712 87.3966C13.8779 93.6109 23.292 98.3369 33.3002 101.369C35.5537 98.3384 37.5478 95.123 39.2613 91.7571C36.0068 90.5416 32.8655 89.0419 29.874 87.2755C30.6613 86.7044 31.4314 86.1161 32.1754 85.5451C40.88 89.6387 50.3807 91.7611 59.9998 91.7611C69.6189 91.7611 79.1196 89.6387 87.8242 85.5451C88.5769 86.1594 89.3469 86.7477 90.1256 87.2755C87.1283 89.0448 83.9813 90.5473 80.721 91.7658C82.4324 95.1301 84.4266 98.3428 86.6821 101.369C96.6988 98.3491 106.12 93.6253 114.532 87.4052V87.4052C116.817 63.7164 110.63 43.1856 98.1805 24.9821ZM41.7271 74.8341C36.3024 74.8341 31.8207 69.9112 31.8207 63.8549C31.8207 57.7986 36.1466 52.8324 41.7098 52.8324C47.2729 52.8324 51.72 57.7986 51.6248 63.8549C51.5296 69.9112 47.2556 74.8341 41.7271 74.8341ZM78.2725 74.8341C72.8392 74.8341 68.3748 69.9112 68.3748 63.8549C68.3748 57.7986 72.7007 52.8324 78.2725 52.8324C83.8443 52.8324 88.2568 57.7986 88.1616 63.8549C88.0664 69.9112 83.8011 74.8341 78.2725 74.8341Z" fill="#111111"/>
</svg>
