<svg width="120" height="120" viewBox="0 0 120 120" fill="none" xmlns="http://www.w3.org/2000/svg">
<rect width="120" height="120" fill="white"/>
<path d="M100.793 38.9116C100.856 39.8229 100.856 40.7343 100.856 41.654C100.856 69.6788 79.5215 102 40.5101 102V101.983C28.9861 102 17.7014 98.699 8 92.475C9.67569 92.6766 11.3598 92.7774 13.0481 92.7816C22.5983 92.79 31.8755 89.5856 39.3888 83.685C30.3132 83.5128 22.3547 77.5953 19.5745 68.9565C22.7537 69.5696 26.0295 69.4437 29.1499 68.5911C19.2553 66.592 12.1367 57.8986 12.1367 47.8024V47.5336C15.085 49.1757 18.3859 50.0871 21.7625 50.1879C12.4433 43.9597 9.5707 31.562 15.1983 21.8691C25.9665 35.1192 41.8541 43.1743 58.9092 44.0269C57.1999 36.6605 59.5349 28.9414 65.045 23.7631C73.5873 15.7332 87.0222 16.1448 95.0521 24.6829C99.802 23.7463 104.355 22.0034 108.521 19.534C106.937 24.4435 103.624 28.6138 99.1972 31.2639C103.401 30.7683 107.509 29.6428 111.376 27.9251C108.529 32.192 104.942 35.9088 100.793 38.9116Z" fill="#111111"/>
</svg>
