<?xml version="1.0" encoding="UTF-8"?>
<svg width="50px" height="60px" viewBox="0 0 50 60" version="1.1" xmlns="http://www.w3.org/2000/svg" xmlns:xlink="http://www.w3.org/1999/xlink">
    <!-- Generator: Sketch 57.1 (83088) - https://sketch.com -->
    <title>Artboard</title>
    <desc>Created with Sketch.</desc>
    <g id="Artboard" stroke="none" stroke-width="1" fill="none" fill-rule="evenodd">
        <g id="Group">
            <path d="M40,18.9830508 L40,29.1525424 L30,29.1525424 L30,18.9830508 L40,18.9830508 Z M20,18.9830508 L20,29.1525424 L10,29.1525424 L10,18.9830508 L20,18.9830508 Z M30,1.24344979e-14 L30,10.1694915 L30,18.9830508 L20,18.9830508 L20,8.81355932 L20,1.24344979e-14 L30,1.24344979e-14 Z" id="Combined-Shape" fill="#cecece"></path>
            <path d="M0,39.3220339 L0,29.1525424 L20,29.1525424 L20,18.9830508 L30,18.9830508 L30,29.1525424 L40,29.1525424 L50,29.1525424 L50,39.3220339 L40,39.3220339 L0,39.3220339 Z" id="Combined-Shape" fill="#a6a6a6"></path>
            <path d="M10,49.4915254 L10,39.3220339 L40,39.3220339 L40,49.4915254 L30,49.4915254 L30,59.6610169 L20,59.6610169 L20,49.4915254 L10,49.4915254 Z" id="Combined-Shape" fill="#cecece"></path>
        </g>
    </g>
</svg>
