<svg width="291" height="306" viewBox="0 0 291 306" fill="none" xmlns="http://www.w3.org/2000/svg">
<path d="M92.4 7.99844C93.0667 22.2651 93.4 35.4651 93.4 47.5984C93.4 70.6651 92.2667 92.3984 90 112.798C88.9333 121.998 85.2 129.732 78.8 135.998C72.5333 142.132 64.4 145.665 54.4 146.598H54.6C52.2 146.865 50 146.998 48 146.998C40.1333 146.998 32.6 145.732 25.4 143.198C18.2 140.798 12.2 137.065 7.4 131.998C2.73333 126.932 0.266667 120.732 0 113.398C0 103.665 0.133333 89.0651 0.4 69.5984L0.6 56.5984C0.866667 42.4651 1 31.9984 1 25.1984C1 16.3984 0.933333 9.93177 0.8 5.79844H5.8L17.8 5.39844C24.3333 5.39844 30.0667 6.13177 35 7.59844C34.4667 22.5318 34.2 33.9984 34.2 41.9984C34.2 61.3318 35.0667 82.7318 36.8 106.198V105.998C37.6 108.665 38.8 110.732 40.4 112.198C42 113.532 43.7333 114.198 45.6 114.198C47.7333 114.198 49.7333 113.332 51.6 111.598C53.4667 109.865 54.7333 107.665 55.4 104.998V105.198C55.9333 92.9318 56.3333 73.5318 56.6 46.9984L56.8 34.1984C56.8 27.7984 56.9333 18.9984 57.2 7.79844L61.4 7.19844C63.2667 7.19844 65.8 6.99844 69 6.59844C74.4667 6.0651 77.7333 5.8651 78.8 5.99844C84.5333 5.99844 88.5333 6.6651 90.8 7.99844H92.4Z" fill="black"/>
<path d="M190 144.403C185.734 143.737 181.134 143.403 176.2 143.403C175.667 143.403 174.4 143.403 172.4 143.403C170.4 143.537 165.467 143.67 157.6 143.803C157.333 136.603 157.2 130.27 157.2 124.803L155.8 80.8033L153.4 85.4033C151.4 89.0033 149.8 91.5367 148.6 93.0033C147.533 94.47 146.333 95.2033 145 95.2033C142.067 95.07 138.6 90.27 134.6 80.8033C134.467 82.1367 134.4 83.87 134.4 86.0033C134.533 88.1367 134.6 89.8033 134.6 91.0033V96.0033C134.6 108.937 135.2 124.537 136.4 142.803C130.667 143.737 124.867 144.203 119 144.203L105.4 143.803H102.6C102.2 143.803 101.933 143.737 101.8 143.603C101.667 143.603 101.6 143.47 101.6 143.203L101.4 141.003C101.133 135.937 101 125.537 101 109.803C101 91.4033 101.2 56.6033 101.6 5.40332C103.6 4.73665 105.667 4.26999 107.8 4.00332C110.067 3.73665 113.267 3.60332 117.4 3.60332L127.2 3.80332C130.133 3.80332 132.333 3.73665 133.8 3.60332C135.533 5.60332 137.067 8.13665 138.4 11.2033C139.733 14.27 142.2 20.5367 145.8 30.0033C145.933 29.7367 146.333 28.4033 147 26.0033C147.8 23.6033 150.933 15.8033 156.4 2.60332C158.133 3.00332 160.4 3.20332 163.2 3.20332C165.333 3.20332 168.934 3.06999 174 2.80332L190.8 2.40332L190 144.403Z" fill="black"/>
<path d="M290.2 143.397C285.933 144.33 281.333 144.797 276.4 144.797C270.533 144.797 264.133 144.063 257.2 142.597C256.267 140.063 254.8 134.73 252.8 126.597C250.8 118.33 249.2 112.863 248 110.197L244 109.997L240.6 110.197C240.067 111.797 239.2 115.73 238 121.997C237.067 127.197 236.133 131.463 235.2 134.797C234.267 137.997 232.933 140.93 231.2 143.597C229.867 143.863 227.867 143.997 225.2 143.997C224 143.997 221.4 143.863 217.4 143.597C205.8 143.063 199.333 142.797 198 142.797C198 142.13 198.133 140.597 198.4 138.197C198.667 135.663 199.067 132.863 199.6 129.797L204 104.597C207.467 83.93 210.733 65.93 213.8 50.5967C217 35.2633 221.133 19.0633 226.2 1.99667C228.067 1.73001 230.6 1.59668 233.8 1.59668H235C243.667 1.59668 252.133 1.26335 260.4 0.59668C262 6.86335 263.467 13.0633 264.8 19.1967C266.133 25.1967 267.333 30.5967 268.4 35.3967C272.667 53.93 275.533 66.2634 277 72.3967L290.2 143.397ZM248.4 84.5967C245.467 57.93 244.067 44.5967 244.2 44.5967L244 42.5967C244 42.5967 243.867 44.1967 243.6 47.3967C243.2 57.3967 242.6 65.33 241.8 71.1967L240 84.5967H248.4Z" fill="black"/>
<path d="M80.4 177.864C86.6667 187.731 90.8 197.664 92.8 207.664V207.464C93.8667 210.797 94.5333 215.131 94.8 220.464C94.5333 224.464 94.4 227.464 94.4 229.464L94.2 232.664C94.2 233.597 94.0667 236.731 93.8 242.064C93.5333 247.397 92.8667 252.664 91.8 257.864C89.2667 265.331 85.7333 272.664 81.2 279.864C76.8 286.931 71.5333 294.264 65.4 301.864C54.2 302.131 45 302.264 37.8 302.264L23.4 302.464L7.8 302.664C5.4 285.197 4.2 263.197 4.2 236.664C4.2 225.064 4.26667 216.397 4.4 210.664C4.53333 205.464 4.6 196.531 4.6 183.864C4.6 180.664 4.46667 175.864 4.2 169.464L4 163.464L5.4 163.264C12.4667 161.397 20.6667 160.464 30 160.464L35.2 160.664H40.6C42.3333 160.797 45 160.864 48.6 160.864C52.2 160.864 54.8667 160.797 56.6 160.664C61.5333 161.997 66.2667 164.397 70.8 167.864C75.3333 171.197 78.9333 175.064 81.6 179.464L80.4 177.864ZM62.2 233.264C62.2 230.864 61.9333 228.531 61.4 226.264C60.3333 220.664 59.0667 216.131 57.6 212.664C56.1333 209.064 53.8667 206.731 50.8 205.664H51.2C48 205.397 45.6 205.264 44 205.264C41.3333 205.264 39.6 205.397 38.8 205.664C39.0667 210.464 39.2 214.997 39.2 219.264V224.464L39 229.864C38.8667 232.931 38.8 237.531 38.8 243.664C38.8 249.531 38.7333 253.997 38.6 257.064C40.6 257.864 42 258.264 42.8 258.264H45.4C47.5333 258.264 49.0667 258.064 50 257.664C52.1333 257.131 54.5333 254.731 57.2 250.464C60.5333 245.397 62.2 239.664 62.2 233.264Z" fill="black"/>
<path d="M192.2 302.467C187.934 303.4 183.334 303.867 178.4 303.867C172.533 303.867 166.133 303.134 159.2 301.667C158.267 299.134 156.8 293.8 154.8 285.667C152.8 277.4 151.2 271.934 150 269.267L146 269.067L142.6 269.267C142.067 270.867 141.2 274.8 140 281.067C139.067 286.267 138.133 290.534 137.2 293.867C136.267 297.067 134.933 300 133.2 302.667C131.867 302.934 129.867 303.067 127.2 303.067C126 303.067 123.4 302.934 119.4 302.667C107.8 302.134 101.333 301.867 100 301.867C100 301.2 100.133 299.667 100.4 297.267C100.667 294.734 101.067 291.934 101.6 288.867L106 263.667C109.467 243 112.733 225 115.8 209.667C119 194.334 123.133 178.134 128.2 161.067C130.067 160.8 132.6 160.667 135.8 160.667H137C145.667 160.667 154.133 160.334 162.4 159.667C164 165.934 165.467 172.134 166.8 178.267C168.133 184.267 169.333 189.667 170.4 194.467C174.667 213 177.533 225.334 179 231.467L192.2 302.467ZM150.4 243.667C147.467 217 146.067 203.667 146.2 203.667L146 201.667C146 201.667 145.867 203.267 145.6 206.467C145.2 216.467 144.6 224.4 143.8 230.267L142 243.667H150.4Z" fill="black"/>
<path d="M290 195.859C290.4 199.993 290.6 204.193 290.6 208.459L290.4 212.059V215.659C290.133 220.059 290 226.526 290 235.059C290 244.526 289.8 251.726 289.4 256.659L288.8 263.259C288.133 274.059 285.4 283.259 280.6 290.859C278.6 293.659 275.6 296.126 271.6 298.259C267.6 300.393 263.2 302.126 258.4 303.459C253.467 304.926 247.667 305.659 241 305.659C237.933 305.659 235.8 305.593 234.6 305.459C228.067 304.926 222.2 303.526 217 301.259C211.933 298.859 208.2 295.393 205.8 290.859C202.6 284.859 200.867 277.326 200.6 268.259L200.2 261.859C200.067 260.793 200 258.593 200 255.259C199.333 244.326 199 233.859 199 223.859C199 217.726 199.2 211.593 199.6 205.459C200 198.793 201.133 192.326 203 186.059C205 179.659 208 174.059 212 169.259L216.4 166.859C224.933 162.726 234.267 160.659 244.4 160.659C250.8 160.659 256.8 161.526 262.4 163.259C268.133 164.859 273.133 167.259 277.4 170.459C282.067 174.726 285.133 178.926 286.6 183.059C288.2 187.326 289.333 191.593 290 195.859ZM259 217.659L258.2 207.259C257.933 203.526 257 200.259 255.4 197.459C253.933 194.526 252 192.459 249.6 191.259C248.533 190.859 247.467 190.659 246.4 190.659C243.2 190.659 240.067 191.726 237 193.859C235.4 195.193 233.8 197.126 232.2 199.659C230.733 202.059 229.6 204.526 228.8 207.059C227.467 212.926 226.8 220.393 226.8 229.459C226.8 233.993 226.867 237.393 227 239.659V239.459C227.533 242.126 227.933 245.659 228.2 250.059L228.4 252.859C228.933 259.526 229.667 264.459 230.6 267.659V267.459C231.8 270.126 233.533 272.193 235.8 273.659C238.2 274.993 240.733 275.659 243.4 275.659C245.533 275.659 247.667 275.193 249.8 274.259C252.067 273.193 254 271.726 255.6 269.859C256.933 268.126 257.733 266.659 258 265.459C258.4 264.259 258.6 262.393 258.6 259.859C258.6 257.593 258.667 255.926 258.8 254.859L259 252.259L259.2 248.459V245.659L259.4 241.859V232.259L259 218.659V217.659Z" fill="black"/>
</svg>
