<?xml version="1.0" standalone="no"?>
<!DOCTYPE svg PUBLIC "-//W3C//DTD SVG 20010904//EN"
 "http://www.w3.org/TR/2001/REC-SVG-20010904/DTD/svg10.dtd">
<svg version="1.0" xmlns="http://www.w3.org/2000/svg"
 width="700.000000pt" height="700.000000pt" viewBox="0 0 700.000000 700.000000"
 preserveAspectRatio="xMidYMid meet">
<metadata>
Created by potrace 1.14, written by Peter Selinger 2001-2017
</metadata>
<g transform="translate(0.000000,700.000000) scale(0.100000,-0.100000)"
fill="#000000" stroke="none">
<path d="M566 6914 c-182 -44 -349 -179 -431 -349 -71 -145 -65 107 -63 -3092
l3 -2888 27 -73 c38 -104 83 -175 159 -251 76 -76 147 -121 251 -159 l73 -27
2915 0 2915 0 73 27 c104 38 175 83 251 159 76 76 121 147 159 251 l27 73 0
2915 0 2915 -27 73 c-38 104 -83 175 -159 251 -76 76 -147 121 -251 159 l-73
27 -2895 2 c-2489 1 -2903 -1 -2954 -13z m5004 -671 c0 -7 65 -295 202 -888
108 -469 334 -1665 316 -1676 -41 -25 -327 -28 -473 -4 -55 9 -103 19 -107 23
-4 4 -34 111 -67 237 -33 127 -68 255 -79 285 l-19 55 -66 3 -66 3 -11 -40
c-6 -22 -26 -115 -45 -208 -44 -213 -42 -205 -78 -286 -23 -51 -36 -69 -55
-74 -21 -5 -574 14 -578 20 -10 15 147 946 250 1484 72 373 228 1000 259 1041
7 8 54 12 166 13 86 1 208 5 271 9 178 10 180 10 180 3z m-1260 -605 c0 -321
-3 -897 -7 -1280 l-6 -698 -41 8 c-23 4 -152 7 -287 6 l-246 -1 -7 60 c-3 33
-6 135 -7 226 -1 91 -6 319 -13 506 l-11 340 -29 -55 c-38 -73 -91 -155 -116
-180 -52 -52 -112 -9 -192 141 l-49 94 6 -310 c5 -301 21 -708 29 -772 4 -29
2 -32 -32 -38 -67 -13 -275 -20 -432 -15 l-155 5 -6 60 c-8 75 -8 1319 0 1955
l6 475 50 13 c33 8 130 13 290 13 l240 1 31 -49 c18 -27 65 -131 105 -232 52
-130 75 -178 80 -165 4 11 46 120 95 242 l88 224 61 -6 c49 -4 245 0 518 12
l37 2 0 -582z m-2857 502 l58 -13 -7 -401 c-7 -402 3 -784 30 -1191 14 -209
25 -247 86 -299 53 -44 138 -35 194 20 65 66 66 70 76 457 5 193 12 589 16
879 l6 527 42 5 c229 30 431 33 526 7 l65 -17 8 -164 c4 -91 6 -390 3 -665 -4
-473 -14 -681 -46 -990 -22 -205 -77 -337 -191 -458 -140 -150 -316 -218 -571
-218 -144 -1 -245 14 -368 53 -260 83 -415 219 -474 417 -19 64 -20 214 -9
1350 l6 723 246 -4 c151 -3 268 -10 304 -18z m2398 -2956 c191 -820 262 -1149
369 -1724 65 -349 115 -638 112 -642 -15 -15 -201 -30 -304 -24 -90 5 -276 31
-285 39 -1 2 -29 108 -63 237 -92 358 -88 350 -167 350 -65 0 -70 -9 -107
-196 -47 -230 -62 -287 -98 -357 l-30 -60 -251 7 c-139 4 -273 9 -300 13 l-47
6 6 51 c8 71 145 873 205 1206 66 361 107 556 179 835 99 385 113 428 141 436
13 4 105 8 204 9 99 1 223 5 275 9 52 4 100 7 105 6 6 -1 31 -91 56 -201z
m-1848 149 c213 -101 357 -270 472 -557 42 -104 92 -288 105 -387 11 -91 -4
-483 -26 -648 -29 -220 -148 -456 -397 -787 l-91 -122 -116 -6 c-63 -3 -297
-7 -520 -8 l-405 -3 -7 49 c-16 111 -39 416 -48 646 -6 135 -9 597 -8 1027 l3
782 45 10 c46 10 151 28 205 35 17 2 185 3 375 2 l345 -1 68 -32z m3415 27
c203 -26 389 -105 492 -209 77 -78 119 -154 155 -276 39 -136 44 -229 35 -735
-11 -600 -29 -781 -93 -952 -60 -159 -120 -230 -254 -300 -184 -96 -375 -135
-607 -125 -300 13 -488 108 -574 288 -66 139 -79 241 -103 829 -28 693 22
1043 181 1275 100 146 464 243 768 205z"/>
<path d="M5267 5430 c-3 -8 -8 -78 -12 -155 -3 -77 -17 -227 -31 -334 -13
-106 -24 -195 -24 -197 0 -2 34 -4 75 -4 l76 0 -7 48 c-3 26 -20 184 -38 352
-18 168 -36 298 -39 290z"/>
<path d="M3492 2382 c-7 -108 -21 -260 -32 -337 -27 -193 -32 -175 49 -175 39
0 72 3 74 8 5 8 -67 690 -74 696 -3 3 -10 -84 -17 -192z"/>
<path d="M1615 2563 l-30 -4 -3 -464 -3 -463 37 -12 c52 -17 154 -8 197 19 64
39 147 177 173 288 31 132 -3 365 -75 519 -40 86 -79 110 -186 116 -44 3 -93
3 -110 1z"/>
<path d="M5229 2815 c-98 -31 -209 -177 -237 -310 -36 -169 -38 -443 -8 -740
30 -296 39 -329 104 -397 94 -99 278 -86 379 25 19 22 41 53 48 71 23 57 38
518 26 796 -13 299 -22 357 -64 439 -59 115 -137 151 -248 116z"/>
</g>
</svg>
